<mxfile host="app.diagrams.net" modified="2020-03-20T12:41:43.658Z" agent="Mozilla/5.0 (Windows NT 10.0; Win64; x64) AppleWebKit/537.36 (KHTML, like Gecko) Chrome/80.0.3987.132 Safari/537.36" etag="dxsQEvLDHVukugf3-Vsd" version="12.8.8" type="github">
  <diagram id="C5RBs43oDa-KdzZeNtuy" name="Page-1">
    <mxGraphModel dx="868" dy="450" grid="1" gridSize="10" guides="1" tooltips="1" connect="1" arrows="1" fold="1" page="1" pageScale="1" pageWidth="827" pageHeight="1169" math="0" shadow="0">
      <root>
        <mxCell id="WIyWlLk6GJQsqaUBKTNV-0" />
        <mxCell id="WIyWlLk6GJQsqaUBKTNV-1" parent="WIyWlLk6GJQsqaUBKTNV-0" />
        <mxCell id="QfBTGLT9YYADVXMIdTBn-8" value="" style="edgeStyle=entityRelationEdgeStyle;fontSize=12;html=1;endArrow=ERmandOne;startArrow=ERmandOne;exitX=1;exitY=0.5;exitDx=0;exitDy=0;endFill=0;" parent="WIyWlLk6GJQsqaUBKTNV-1" source="QfBTGLT9YYADVXMIdTBn-1" edge="1">
          <mxGeometry width="100" height="100" relative="1" as="geometry">
            <mxPoint x="330" y="390" as="sourcePoint" />
            <mxPoint x="579" y="500" as="targetPoint" />
          </mxGeometry>
        </mxCell>
        <mxCell id="zkfFHV4jXpPFQw0GAbJ--51" value="Generals" style="swimlane;fontStyle=1;childLayout=stackLayout;horizontal=1;startSize=26;horizontalStack=0;resizeParent=1;resizeLast=0;collapsible=1;marginBottom=0;rounded=0;shadow=0;strokeWidth=1;" parent="WIyWlLk6GJQsqaUBKTNV-1" vertex="1">
          <mxGeometry x="160" y="120" width="160" height="160" as="geometry">
            <mxRectangle x="20" y="80" width="160" height="26" as="alternateBounds" />
          </mxGeometry>
        </mxCell>
        <mxCell id="zkfFHV4jXpPFQw0GAbJ--52" value="GeneralID" style="shape=partialRectangle;top=0;left=0;right=0;bottom=1;align=left;verticalAlign=top;fillColor=none;spacingLeft=40;spacingRight=4;overflow=hidden;rotatable=0;points=[[0,0.5],[1,0.5]];portConstraint=eastwest;dropTarget=0;rounded=0;shadow=0;strokeWidth=1;fontStyle=4" parent="zkfFHV4jXpPFQw0GAbJ--51" vertex="1">
          <mxGeometry y="26" width="160" height="26" as="geometry" />
        </mxCell>
        <mxCell id="zkfFHV4jXpPFQw0GAbJ--53" value="PK" style="shape=partialRectangle;top=0;left=0;bottom=0;fillColor=none;align=left;verticalAlign=top;spacingLeft=4;spacingRight=4;overflow=hidden;rotatable=0;points=[];portConstraint=eastwest;part=1;" parent="zkfFHV4jXpPFQw0GAbJ--52" vertex="1" connectable="0">
          <mxGeometry width="36" height="26" as="geometry" />
        </mxCell>
        <mxCell id="zkfFHV4jXpPFQw0GAbJ--54" value="Name&#xa;Nationality&#xa;Date of birth&#xa;AD/BC" style="shape=partialRectangle;top=0;left=0;right=0;bottom=0;align=left;verticalAlign=top;fillColor=none;spacingLeft=40;spacingRight=4;overflow=hidden;rotatable=0;points=[[0,0.5],[1,0.5]];portConstraint=eastwest;dropTarget=0;rounded=0;shadow=0;strokeWidth=1;" parent="zkfFHV4jXpPFQw0GAbJ--51" vertex="1">
          <mxGeometry y="52" width="160" height="108" as="geometry" />
        </mxCell>
        <mxCell id="zkfFHV4jXpPFQw0GAbJ--55" value="" style="shape=partialRectangle;top=0;left=0;bottom=0;fillColor=none;align=left;verticalAlign=top;spacingLeft=4;spacingRight=4;overflow=hidden;rotatable=0;points=[];portConstraint=eastwest;part=1;" parent="zkfFHV4jXpPFQw0GAbJ--54" vertex="1" connectable="0">
          <mxGeometry width="36" height="108.00000000000001" as="geometry" />
        </mxCell>
        <mxCell id="zkfFHV4jXpPFQw0GAbJ--56" value="Events" style="swimlane;fontStyle=1;childLayout=stackLayout;horizontal=1;startSize=26;horizontalStack=0;resizeParent=1;resizeLast=0;collapsible=1;marginBottom=0;rounded=0;shadow=0;strokeWidth=1;" parent="WIyWlLk6GJQsqaUBKTNV-1" vertex="1">
          <mxGeometry x="400" y="120" width="160" height="104" as="geometry">
            <mxRectangle x="260" y="80" width="160" height="26" as="alternateBounds" />
          </mxGeometry>
        </mxCell>
        <mxCell id="zkfFHV4jXpPFQw0GAbJ--57" value="EventID" style="shape=partialRectangle;top=0;left=0;right=0;bottom=1;align=left;verticalAlign=top;fillColor=none;spacingLeft=40;spacingRight=4;overflow=hidden;rotatable=0;points=[[0,0.5],[1,0.5]];portConstraint=eastwest;dropTarget=0;rounded=0;shadow=0;strokeWidth=1;fontStyle=4" parent="zkfFHV4jXpPFQw0GAbJ--56" vertex="1">
          <mxGeometry y="26" width="160" height="26" as="geometry" />
        </mxCell>
        <mxCell id="zkfFHV4jXpPFQw0GAbJ--58" value="PK" style="shape=partialRectangle;top=0;left=0;bottom=0;fillColor=none;align=left;verticalAlign=top;spacingLeft=4;spacingRight=4;overflow=hidden;rotatable=0;points=[];portConstraint=eastwest;part=1;" parent="zkfFHV4jXpPFQw0GAbJ--57" vertex="1" connectable="0">
          <mxGeometry width="36" height="26" as="geometry" />
        </mxCell>
        <mxCell id="zkfFHV4jXpPFQw0GAbJ--59" value="GeneralID" style="shape=partialRectangle;top=0;left=0;right=0;bottom=0;align=left;verticalAlign=top;fillColor=none;spacingLeft=40;spacingRight=4;overflow=hidden;rotatable=0;points=[[0,0.5],[1,0.5]];portConstraint=eastwest;dropTarget=0;rounded=0;shadow=0;strokeWidth=1;" parent="zkfFHV4jXpPFQw0GAbJ--56" vertex="1">
          <mxGeometry y="52" width="160" height="26" as="geometry" />
        </mxCell>
        <mxCell id="zkfFHV4jXpPFQw0GAbJ--60" value="FK1" style="shape=partialRectangle;top=0;left=0;bottom=0;fillColor=none;align=left;verticalAlign=top;spacingLeft=4;spacingRight=4;overflow=hidden;rotatable=0;points=[];portConstraint=eastwest;part=1;" parent="zkfFHV4jXpPFQw0GAbJ--59" vertex="1" connectable="0">
          <mxGeometry width="36" height="26" as="geometry" />
        </mxCell>
        <mxCell id="zkfFHV4jXpPFQw0GAbJ--61" value="BattleID" style="shape=partialRectangle;top=0;left=0;right=0;bottom=0;align=left;verticalAlign=top;fillColor=none;spacingLeft=40;spacingRight=4;overflow=hidden;rotatable=0;points=[[0,0.5],[1,0.5]];portConstraint=eastwest;dropTarget=0;rounded=0;shadow=0;strokeWidth=1;" parent="zkfFHV4jXpPFQw0GAbJ--56" vertex="1">
          <mxGeometry y="78" width="160" height="26" as="geometry" />
        </mxCell>
        <mxCell id="zkfFHV4jXpPFQw0GAbJ--62" value="" style="shape=partialRectangle;top=0;left=0;bottom=0;fillColor=none;align=left;verticalAlign=top;spacingLeft=4;spacingRight=4;overflow=hidden;rotatable=0;points=[];portConstraint=eastwest;part=1;" parent="zkfFHV4jXpPFQw0GAbJ--61" vertex="1" connectable="0">
          <mxGeometry width="36" height="26" as="geometry" />
        </mxCell>
        <mxCell id="2EUfX5-i9lCXZt_aA1CP-8" value="" style="edgeStyle=entityRelationEdgeStyle;fontSize=12;html=1;endArrow=ERoneToMany;startArrow=ERmandOne;entryX=0;entryY=0.5;entryDx=0;entryDy=0;exitX=1;exitY=0.5;exitDx=0;exitDy=0;" parent="WIyWlLk6GJQsqaUBKTNV-1" source="zkfFHV4jXpPFQw0GAbJ--65" target="zkfFHV4jXpPFQw0GAbJ--61" edge="1">
          <mxGeometry width="100" height="100" relative="1" as="geometry">
            <mxPoint x="560" y="349" as="sourcePoint" />
            <mxPoint x="510" y="200" as="targetPoint" />
          </mxGeometry>
        </mxCell>
        <mxCell id="2EUfX5-i9lCXZt_aA1CP-9" value="" style="edgeStyle=entityRelationEdgeStyle;fontSize=12;html=1;endArrow=ERoneToMany;startArrow=ERmandOne;entryX=0.006;entryY=0.231;entryDx=0;entryDy=0;exitX=1;exitY=0.5;exitDx=0;exitDy=0;entryPerimeter=0;" parent="WIyWlLk6GJQsqaUBKTNV-1" source="zkfFHV4jXpPFQw0GAbJ--52" target="zkfFHV4jXpPFQw0GAbJ--59" edge="1">
          <mxGeometry width="100" height="100" relative="1" as="geometry">
            <mxPoint x="314" y="160" as="sourcePoint" />
            <mxPoint x="414" y="160" as="targetPoint" />
          </mxGeometry>
        </mxCell>
        <mxCell id="QfBTGLT9YYADVXMIdTBn-0" value="Armies" style="swimlane;fontStyle=1;childLayout=stackLayout;horizontal=1;startSize=26;horizontalStack=0;resizeParent=1;resizeLast=0;collapsible=1;marginBottom=0;rounded=0;shadow=0;strokeWidth=1;" parent="WIyWlLk6GJQsqaUBKTNV-1" vertex="1">
          <mxGeometry x="160" y="320" width="160" height="160" as="geometry">
            <mxRectangle x="20" y="80" width="160" height="26" as="alternateBounds" />
          </mxGeometry>
        </mxCell>
        <mxCell id="QfBTGLT9YYADVXMIdTBn-1" value="ArmyID" style="shape=partialRectangle;top=0;left=0;right=0;bottom=1;align=left;verticalAlign=top;fillColor=none;spacingLeft=40;spacingRight=4;overflow=hidden;rotatable=0;points=[[0,0.5],[1,0.5]];portConstraint=eastwest;dropTarget=0;rounded=0;shadow=0;strokeWidth=1;fontStyle=4" parent="QfBTGLT9YYADVXMIdTBn-0" vertex="1">
          <mxGeometry y="26" width="160" height="26" as="geometry" />
        </mxCell>
        <mxCell id="QfBTGLT9YYADVXMIdTBn-2" value="PK" style="shape=partialRectangle;top=0;left=0;bottom=0;fillColor=none;align=left;verticalAlign=top;spacingLeft=4;spacingRight=4;overflow=hidden;rotatable=0;points=[];portConstraint=eastwest;part=1;" parent="QfBTGLT9YYADVXMIdTBn-1" vertex="1" connectable="0">
          <mxGeometry width="36" height="26" as="geometry" />
        </mxCell>
        <mxCell id="QfBTGLT9YYADVXMIdTBn-3" value="Strength&#xa;CommanderID" style="shape=partialRectangle;top=0;left=0;right=0;bottom=0;align=left;verticalAlign=top;fillColor=none;spacingLeft=40;spacingRight=4;overflow=hidden;rotatable=0;points=[[0,0.5],[1,0.5]];portConstraint=eastwest;dropTarget=0;rounded=0;shadow=0;strokeWidth=1;" parent="QfBTGLT9YYADVXMIdTBn-0" vertex="1">
          <mxGeometry y="52" width="160" height="108" as="geometry" />
        </mxCell>
        <mxCell id="QfBTGLT9YYADVXMIdTBn-4" value="&#xa;FK" style="shape=partialRectangle;top=0;left=0;bottom=0;fillColor=none;align=left;verticalAlign=top;spacingLeft=4;spacingRight=4;overflow=hidden;rotatable=0;points=[];portConstraint=eastwest;part=1;" parent="QfBTGLT9YYADVXMIdTBn-3" vertex="1" connectable="0">
          <mxGeometry width="36" height="108.00000000000001" as="geometry" />
        </mxCell>
        <mxCell id="QfBTGLT9YYADVXMIdTBn-5" value="" style="edgeStyle=entityRelationEdgeStyle;fontSize=12;html=1;endArrow=ERoneToMany;startArrow=ERmandOne;entryX=-0.019;entryY=0.241;entryDx=0;entryDy=0;exitX=1;exitY=0.5;exitDx=0;exitDy=0;entryPerimeter=0;" parent="WIyWlLk6GJQsqaUBKTNV-1" target="QfBTGLT9YYADVXMIdTBn-3" edge="1">
          <mxGeometry width="100" height="100" relative="1" as="geometry">
            <mxPoint x="319.04" y="169" as="sourcePoint" />
            <mxPoint x="400.00000000000006" y="188.00599999999997" as="targetPoint" />
          </mxGeometry>
        </mxCell>
        <mxCell id="zkfFHV4jXpPFQw0GAbJ--64" value="Battles" style="swimlane;fontStyle=1;childLayout=stackLayout;horizontal=1;startSize=26;horizontalStack=0;resizeParent=1;resizeLast=0;collapsible=1;marginBottom=0;rounded=0;shadow=0;strokeWidth=1;" parent="WIyWlLk6GJQsqaUBKTNV-1" vertex="1">
          <mxGeometry x="580" y="300" width="160" height="260" as="geometry">
            <mxRectangle x="260" y="270" width="160" height="26" as="alternateBounds" />
          </mxGeometry>
        </mxCell>
        <mxCell id="zkfFHV4jXpPFQw0GAbJ--65" value="BattleID" style="shape=partialRectangle;top=0;left=0;right=0;bottom=1;align=left;verticalAlign=top;fillColor=none;spacingLeft=40;spacingRight=4;overflow=hidden;rotatable=0;points=[[0,0.5],[1,0.5]];portConstraint=eastwest;dropTarget=0;rounded=0;shadow=0;strokeWidth=1;fontStyle=4" parent="zkfFHV4jXpPFQw0GAbJ--64" vertex="1">
          <mxGeometry y="26" width="160" height="26" as="geometry" />
        </mxCell>
        <mxCell id="zkfFHV4jXpPFQw0GAbJ--66" value="PK" style="shape=partialRectangle;top=0;left=0;bottom=0;fillColor=none;align=left;verticalAlign=top;spacingLeft=4;spacingRight=4;overflow=hidden;rotatable=0;points=[];portConstraint=eastwest;part=1;" parent="zkfFHV4jXpPFQw0GAbJ--65" vertex="1" connectable="0">
          <mxGeometry width="36" height="26" as="geometry" />
        </mxCell>
        <mxCell id="zkfFHV4jXpPFQw0GAbJ--67" value="Location" style="shape=partialRectangle;top=0;left=0;right=0;bottom=0;align=left;verticalAlign=top;fillColor=none;spacingLeft=40;spacingRight=4;overflow=hidden;rotatable=0;points=[[0,0.5],[1,0.5]];portConstraint=eastwest;dropTarget=0;rounded=0;shadow=0;strokeWidth=1;" parent="zkfFHV4jXpPFQw0GAbJ--64" vertex="1">
          <mxGeometry y="52" width="160" height="58" as="geometry" />
        </mxCell>
        <mxCell id="zkfFHV4jXpPFQw0GAbJ--68" value="" style="shape=partialRectangle;top=0;left=0;bottom=0;fillColor=none;align=left;verticalAlign=top;spacingLeft=4;spacingRight=4;overflow=hidden;rotatable=0;points=[];portConstraint=eastwest;part=1;" parent="zkfFHV4jXpPFQw0GAbJ--67" vertex="1" connectable="0">
          <mxGeometry width="36" height="58" as="geometry" />
        </mxCell>
        <mxCell id="zkfFHV4jXpPFQw0GAbJ--69" value="Start date&#xa;End date&#xa;AD/BC&#xa;Type&#xa;Result&#xa;War&#xa;&#xa;Winner&#xa;Loser" style="shape=partialRectangle;top=0;left=0;right=0;bottom=0;align=left;verticalAlign=top;fillColor=none;spacingLeft=40;spacingRight=4;overflow=hidden;rotatable=0;points=[[0,0.5],[1,0.5]];portConstraint=eastwest;dropTarget=0;rounded=0;shadow=0;strokeWidth=1;" parent="zkfFHV4jXpPFQw0GAbJ--64" vertex="1">
          <mxGeometry y="110" width="160" height="148" as="geometry" />
        </mxCell>
        <mxCell id="zkfFHV4jXpPFQw0GAbJ--70" value="&#xa;&#xa;&#xa;&#xa;&#xa;&#xa;FK&#xa;FK" style="shape=partialRectangle;top=0;left=0;bottom=0;fillColor=none;align=left;verticalAlign=top;spacingLeft=4;spacingRight=4;overflow=hidden;rotatable=0;points=[];portConstraint=eastwest;part=1;" parent="zkfFHV4jXpPFQw0GAbJ--69" vertex="1" connectable="0">
          <mxGeometry width="36" height="148" as="geometry" />
        </mxCell>
        <mxCell id="QfBTGLT9YYADVXMIdTBn-11" value="" style="edgeStyle=entityRelationEdgeStyle;fontSize=12;html=1;endArrow=ERmandOne;startArrow=ERmandOne;entryX=0;entryY=0.784;entryDx=0;entryDy=0;entryPerimeter=0;endFill=0;" parent="WIyWlLk6GJQsqaUBKTNV-1" source="QfBTGLT9YYADVXMIdTBn-1" target="zkfFHV4jXpPFQw0GAbJ--69" edge="1">
          <mxGeometry width="100" height="100" relative="1" as="geometry">
            <mxPoint x="320.96" y="430" as="sourcePoint" />
            <mxPoint x="580" y="582.972" as="targetPoint" />
          </mxGeometry>
        </mxCell>
      </root>
    </mxGraphModel>
  </diagram>
</mxfile>
